<?xml version="1.0" encoding="utf-8"?>
<!-- Generator: Adobe Illustrator 21.1.0, SVG Export Plug-In . SVG Version: 6.00 Build 0)  -->
<!DOCTYPE svg PUBLIC "-//W3C//DTD SVG 1.1//EN" "http://www.w3.org/Graphics/SVG/1.1/DTD/svg11.dtd">
<svg version="1.1" id="Layer_1" xmlns="http://www.w3.org/2000/svg" xmlns:xlink="http://www.w3.org/1999/xlink" x="0px" y="0px"
	 width="214" height="198" viewBox="0 0 214 198" style="enable-background:new 0 0 214 198;" xml:space="preserve">
<style type="text/css">
	.st0{fill:#FFFFFF;}
	.st1{fill:#0A38A5;}
	.st2{fill:#63EAEA;}
</style>
<g>
	<g>
		<path class="st0" d="M156.5,168.5c-0.6,0.5-1.2,1-1.8,1.5c-0.3,0.3-0.7,0.5-1,0.8c-0.3,0.2-0.6,0.5-1,0.7
			c-12.6,9.5-28.1,14.8-43.9,14.8c-0.4,0-0.8,0-1.2,0c-0.3,0-0.6,0-0.9,0c-0.4,0-0.8,0-1.2,0c-0.8,0-1.6-0.1-2.3-0.1l0,0
			c-1-0.1-1.9-0.2-2.9-0.3l0,0c-16.4-2-31.7-9.7-43.1-21.4c-0.1-0.1-0.2-0.2-0.3-0.3c-0.6-0.6-1.1-1.2-1.7-1.8
			c-0.7-0.8-1.4-1.6-2-2.4c0,0,0,0-0.1-0.1c-14.8-18.1-20.2-42.8-13.5-66v-0.1c0.3-1.1,0.7-2.1,1-3.2c0.1-0.2,0.1-0.3,0.2-0.5
			c0.3-0.9,0.7-1.8,1-2.8c0.1-0.3,0.2-0.6,0.4-0.9c0.3-0.8,0.7-1.5,1-2.3c0.2-0.4,0.4-0.9,0.6-1.3c0.3-0.6,0.6-1.2,0.9-1.7
			c0.3-0.6,0.6-1.2,0.9-1.7c0.2-0.4,0.5-0.8,0.7-1.2c0.4-0.7,0.8-1.4,1.2-2.1c0.2-0.3,0.4-0.6,0.5-0.9c0.5-0.7,1-1.5,1.5-2.2
			c0.2-0.2,0.3-0.5,0.5-0.7c0.5-0.7,1.1-1.5,1.6-2.2c0.2-0.2,0.3-0.4,0.5-0.7c0.6-0.7,1.1-1.4,1.7-2.1c0.2-0.2,0.4-0.5,0.6-0.7
			c0.6-0.6,1.1-1.3,1.7-1.9c0.2-0.3,0.5-0.5,0.8-0.8c0.5-0.6,1.1-1.1,1.6-1.6c0.3-0.3,0.6-0.6,1-0.9c0.5-0.5,1-0.9,1.5-1.4
			c0.4-0.4,0.8-0.7,1.2-1.1c0.4-0.4,0.9-0.7,1.3-1.1c0.5-0.4,1-0.8,1.5-1.2c0.4-0.3,0.8-0.6,1.2-0.9c0.6-0.4,1.2-0.9,1.8-1.3
			c0.3-0.2,0.7-0.5,1-0.7c0.7-0.4,1.3-0.9,2-1.3c0.3-0.2,0.6-0.4,0.9-0.5c0.7-0.4,1.5-0.9,2.2-1.3c0.3-0.1,0.5-0.3,0.8-0.4
			c0.8-0.4,1.5-0.8,2.3-1.2c0.3-0.1,0.6-0.3,0.9-0.4c0.8-0.4,1.5-0.7,2.3-1c0.3-0.1,0.7-0.3,1-0.4c0.7-0.3,1.4-0.6,2.1-0.8
			c0.5-0.2,0.9-0.3,1.4-0.5c0.6-0.2,1.2-0.4,1.8-0.6s1.3-0.4,1.9-0.6c0.4-0.1,0.9-0.3,1.3-0.4c0.8-0.2,1.5-0.4,2.3-0.6
			c0.3-0.1,0.7-0.2,1-0.2c0.8-0.2,1.7-0.4,2.5-0.5c0.3-0.1,0.6-0.1,0.9-0.2c0.9-0.2,1.8-0.3,2.7-0.4c0.2,0,0.5-0.1,0.7-0.1
			c0.9-0.1,1.9-0.2,2.8-0.3c0.2,0,0.4,0,0.6,0c1-0.1,2-0.1,3-0.2c0.2,0,0.3,0,0.5,0c1,0,2.1,0,3.1,0c0.1,0,0.2,0,0.4,0
			c1.1,0,2.1,0.1,3.2,0.1c0.1,0,0.2,0,0.3,0c1.1,0.1,2.1,0.2,3.2,0.3c7.6,0.9,15.2,3,22.3,6.3c2,0.9,4,2,5.8,3.1
			c0.9,0.5,1.7,1,2.6,1.6c0.1,0.1,0.3,0.2,0.4,0.2c0.9,0.6,1.8,1.2,2.6,1.8c0.1,0.1,0.2,0.1,0.3,0.2c0.8,0.6,1.6,1.2,2.3,1.8
			c0.2,0.1,0.3,0.3,0.5,0.4c0.6,0.5,1.3,1,1.9,1.6c0.3,0.3,0.6,0.5,0.9,0.8c0.5,0.4,0.9,0.8,1.4,1.3c0.4,0.4,0.9,0.8,1.3,1.2
			c0.3,0.3,0.6,0.6,0.9,0.9c0.6,0.6,1.1,1.1,1.6,1.7c6.8,7.3,12,16.1,15.3,25.7c0.2,0.6,0.4,1.1,0.5,1.7c0.2,0.6,0.4,1.2,0.6,1.8
			c0.1,0.4,0.2,0.8,0.3,1.2c0.2,0.8,0.4,1.6,0.6,2.4c0.1,0.3,0.1,0.6,0.2,1c0.2,0.9,0.4,1.8,0.5,2.7c0,0.3,0.1,0.5,0.1,0.8
			c0.2,1,0.3,1.9,0.4,2.9c0,0.2,0,0.4,0.1,0.6c0.1,1,0.2,2.1,0.3,3.1c0,0.1,0,0.2,0,0.4c0.1,1.1,0.1,2.2,0.2,3.3v0.1
			c0.5,21.4-8.7,41.7-24.4,55.7C156.8,168.4,156.7,168.5,156.5,168.5z"/>
		<g>
			<path class="st1" d="M35.4,40.9c0-2.4,1.9-4.3,4.3-4.3c0.8,0,1.5-0.7,1.5-1.5s-0.7-1.5-1.5-1.5c-2.4,0-4.3-1.9-4.3-4.3
				c0-0.8-0.7-1.5-1.5-1.5s-1.5,0.7-1.5,1.5c0,2.4-1.9,4.3-4.3,4.3c-0.8,0-1.5,0.7-1.5,1.5s0.7,1.5,1.5,1.5c2.4,0,4.3,1.9,4.3,4.3
				c0,0.8,0.7,1.5,1.5,1.5C34.8,42.4,35.4,41.8,35.4,40.9z M32.5,35.2c0.5-0.4,1-0.9,1.4-1.4c0.4,0.5,0.9,1,1.4,1.4
				c-0.5,0.4-1,0.9-1.4,1.4C33.5,36,33.1,35.5,32.5,35.2z"/>
			<path class="st1" d="M211.8,36.5c-0.2,0-0.5-0.2-0.5-0.5c0-0.8-0.7-1.5-1.5-1.5s-1.5,0.7-1.5,1.5c0,0.2-0.2,0.5-0.4,0.5
				c-0.8,0-1.5,0.7-1.5,1.5s0.7,1.5,1.5,1.5c0.2,0,0.4,0.2,0.4,0.5c0,0.8,0.7,1.5,1.5,1.5s1.5-0.7,1.5-1.5c0-0.2,0.2-0.5,0.5-0.5
				c0.8,0,1.5-0.7,1.5-1.5S212.7,36.5,211.8,36.5z"/>
			<path class="st1" d="M195.5,180.9c-0.7,0-1.2-0.5-1.2-1.2c0-0.8-0.7-1.5-1.5-1.5c-0.8,0-1.5,0.7-1.5,1.5c0,0.7-0.5,1.2-1.2,1.2
				c-0.8,0-1.5,0.7-1.5,1.5c0,0.8,0.7,1.5,1.5,1.5c0.7,0,1.2,0.5,1.2,1.2c0,0.8,0.7,1.5,1.5,1.5c0.8,0,1.5-0.7,1.5-1.5
				c0-0.7,0.5-1.2,1.2-1.2c0.8,0,1.5-0.7,1.5-1.5C197,181.5,196.4,180.9,195.5,180.9z"/>
			<path class="st1" d="M55.2,185.2c-4.2,0-7.7-3.4-7.7-7.7c0-0.8-0.7-1.5-1.5-1.5s-1.5,0.7-1.5,1.5c0,4.2-3.4,7.7-7.7,7.7
				c-0.8,0-1.5,0.7-1.5,1.5c0,0.8,0.7,1.5,1.5,1.5c4.2,0,7.7,3.4,7.7,7.7c0,0.8,0.7,1.5,1.5,1.5s1.5-0.7,1.5-1.5
				c0-4.2,3.4-7.7,7.7-7.7c0.8,0,1.5-0.7,1.5-1.5C56.7,186,56.1,185.2,55.2,185.2z M46,190.5c-0.9-1.5-2.2-2.8-3.7-3.7
				c1.5-0.9,2.8-2.2,3.7-3.7c0.9,1.5,2.2,2.8,3.7,3.7C48.3,187.6,47,189,46,190.5z"/>
			<circle class="st1" cx="2.6" cy="120.2" r="1.9"/>
			<circle class="st1" cx="96" cy="2.4" r="1.9"/>
			<path class="st1" d="M130.3,142.8c0.1,0.1,0.2,0.1,0.3,0.2c0,0,0.1,0,0.1,0.1c0.1,0,0.3,0.1,0.4,0.1l0,0l0,0l0,0l0,0
				c0.1,0,0.2,0,0.3,0h0.1c0.1,0,0.2-0.1,0.2-0.1l0,0l0.1-0.1c0,0,0.1,0,0.1-0.1c0.1-0.1,0.1-0.1,0.2-0.2l0,0l0,0
				c0.1-0.1,0.1-0.1,0.1-0.2s0.1-0.2,0.1-0.2s0,0,0-0.1s0-0.1,0-0.2v-0.1c0-0.1,0-0.1,0-0.2v-0.1c0-0.2-0.1-0.4-0.2-0.6l0,0
				l-16.7-31.8l0,0c0,0,0,0,0-0.1s-0.1-0.1-0.1-0.2l0,0l0,0l-0.1-0.1l-0.1-0.1l0,0l0,0l0,0l0,0l-8.9-7.5l0,0
				c-0.1-0.2-0.3-0.3-0.5-0.4L87.5,85.5l0,0c-0.1-0.1-0.2-0.1-0.2-0.2l0,0c-0.1,0-0.1-0.1-0.2-0.1c-0.1,0-0.1,0-0.2,0h-0.1
				c-0.1,0-0.1,0-0.2,0h-0.1c-0.2,0-0.4,0.1-0.6,0.2l0,0l0,0c-0.1,0-0.2,0.1-0.2,0.1l-0.1,0.1c0,0-0.1,0-0.1,0.1l0,0
				c-0.1,0.1-0.1,0.1-0.1,0.2c0,0.1-0.1,0.2-0.1,0.2s0,0,0,0.1s0,0.1,0,0.2v0.1c0,0.1,0,0.1,0,0.2v0.1c0,0.2,0.1,0.4,0.2,0.6l0,0
				L91.1,98l0,0l5.4,10.3c0.1,0.2,0.1,0.4,0.3,0.6l0,0l5.4,10.3l0,0c0,0,0,0,0,0.1s0.1,0.1,0.1,0.2l0,0l0,0l0,0l0.1,0.1
				c0,0,0,0.1,0.1,0.1L130.3,142.8C130.2,142.6,130.2,142.6,130.3,142.8z M99.8,108.2l5.3-4.3l2.2,1.9l-6.2,5L99.8,108.2z M97,103
				l3.5-2.9l2.2,1.9l-4.4,3.6L97,103z M94.3,97.7l1.7-1.4l2.2,1.9l-2.6,2.1L94.3,97.7z M91.6,92.5l2,1.7l-0.8,0.6L91.6,92.5z
				 M109.8,107.7l2.2,1.9l-8,6.5l-1.4-2.6L109.8,107.7z M113.9,112l12.4,23.5l-20.4-17L113.9,112z"/>
			<path class="st1" d="M77.2,125.7c-0.3-0.8-1.1-1.2-1.9-0.9l-13.9,5.1c0,0,0,0-0.1,0l-1,0.4l0,0l-4,1.4c-0.7-2.1-1.3-4.3-1.7-6.5
				c-2.8-13.8-0.3-28,7-40c0.4-0.7,0.2-1.6-0.5-2.1c-0.7-0.4-1.6-0.2-2.1,0.5c-7.7,12.6-10.4,27.6-7.4,42.1
				c1.3,6.5,3.7,12.7,7.1,18.4c0.3,0.5,0.8,0.7,1.3,0.7c0.3,0,0.5-0.1,0.8-0.2c0.7-0.4,0.9-1.3,0.5-2.1c-1.6-2.6-2.9-5.3-4-8.1
				l19-6.9C77.1,127.2,77.5,126.3,77.2,125.7z"/>
			<path class="st1" d="M130.2,70c0.6,0,1.1-0.3,1.4-0.9l0.4-1c0.4-0.8,0-1.6-0.7-2c-0.7-0.3-1.6,0-2,0.7l-0.4,1
				c-0.3,0.8,0,1.6,0.7,2C129.7,70,130,70,130.2,70z"/>
			<path class="st1" d="M117.7,66.2c0.7,0,1.3-0.5,1.5-1.2l0.2-1c0.1-0.8-0.4-1.6-1.2-1.7s-1.6,0.4-1.7,1.2l-0.2,1
				c-0.1,0.8,0.4,1.6,1.2,1.7C117.5,66.2,117.6,66.2,117.7,66.2z"/>
			<path class="st1" d="M104.6,65.5h0.1c0.8-0.1,1.4-0.8,1.4-1.6l-0.1-1c-0.1-0.8-0.8-1.4-1.6-1.4c-0.8,0.1-1.4,0.8-1.4,1.6l0.1,1
				C103.2,64.9,103.8,65.5,104.6,65.5z"/>
			<path class="st1" d="M78.9,73.7c0.3,0.4,0.8,0.6,1.2,0.6c0.3,0,0.6-0.1,0.9-0.3c0.7-0.5,0.8-1.4,0.4-2.1L80.8,71
				c-0.5-0.7-1.4-0.8-2.1-0.4c-0.7,0.5-0.8,1.4-0.4,2.1L78.9,73.7z"/>
			<path class="st1" d="M68.7,82.2l0.8,0.7c0.3,0.2,0.6,0.3,1,0.3s0.9-0.2,1.2-0.5c0.5-0.6,0.4-1.6-0.2-2.1l-0.8-0.7
				c-0.6-0.5-1.6-0.4-2.1,0.2C68,80.7,68.1,81.7,68.7,82.2z"/>
			<path class="st1" d="M61.9,93.7l1,0.4c0.2,0.1,0.4,0.1,0.6,0.1c0.6,0,1.1-0.3,1.4-0.9c0.3-0.8,0-1.6-0.7-2l-1-0.4
				c-0.8-0.3-1.6,0-2,0.7C60.8,92.5,61.1,93.3,61.9,93.7z"/>
			<path class="st1" d="M61,105.5c0.1-0.8-0.4-1.6-1.2-1.7l-1-0.2c-0.8-0.1-1.6,0.4-1.7,1.2s0.4,1.6,1.2,1.7l1,0.2
				c0.1,0,0.2,0,0.3,0C60.2,106.8,60.9,106.3,61,105.5z"/>
			<path class="st1" d="M57.8,117c-0.8,0.1-1.4,0.8-1.4,1.6c0.1,0.8,0.7,1.4,1.5,1.4H58l1-0.1c0.8-0.1,1.4-0.8,1.4-1.6
				c-0.1-0.8-0.8-1.4-1.6-1.4L57.8,117z"/>
			<path class="st1" d="M67,141.6l-0.9,0.6c-0.7,0.5-0.8,1.4-0.4,2.1c0.3,0.4,0.8,0.6,1.2,0.6c0.3,0,0.6-0.1,0.9-0.3l0.9-0.6
				c0.7-0.5,0.8-1.4,0.4-2.1C68.6,141.2,67.6,141.1,67,141.6z"/>
			<path class="st1" d="M75.5,151.5l-0.7,0.8c-0.5,0.6-0.4,1.6,0.2,2.1c0.3,0.2,0.6,0.3,1,0.3s0.9-0.2,1.2-0.5l0.7-0.8
				c0.5-0.6,0.4-1.6-0.2-2.1C77,150.9,76,151,75.5,151.5z"/>
			<path class="st1" d="M86.4,159l-0.4,1c-0.3,0.8,0,1.6,0.7,2c0.2,0.1,0.4,0.1,0.6,0.1c0.6,0,1.1-0.3,1.4-0.9l0.4-1
				c0.3-0.8,0-1.6-0.7-2C87.6,157.9,86.7,158.1,86.4,159z"/>
			<path class="st1" d="M98.7,163.2l-0.2,1c-0.1,0.8,0.4,1.6,1.2,1.7c0.1,0,0.2,0,0.3,0c0.7,0,1.3-0.5,1.5-1.2l0.2-1
				c0.1-0.8-0.4-1.6-1.2-1.7C99.6,161.9,98.9,162.5,98.7,163.2z"/>
			<path class="st1" d="M113.2,162.5c-0.8,0.1-1.4,0.8-1.4,1.6l0.1,1c0.1,0.8,0.7,1.4,1.5,1.4h0.1c0.8-0.1,1.4-0.8,1.4-1.6l-0.1-1
				C114.7,163,114,162.5,113.2,162.5z"/>
			<path class="st1" d="M138.9,154.4c-0.5-0.7-1.4-0.8-2.1-0.4c-0.7,0.5-0.8,1.4-0.4,2.1l0.6,0.9c0.3,0.4,0.8,0.6,1.2,0.6
				c0.3,0,0.6-0.1,0.9-0.3c0.7-0.5,0.8-1.4,0.4-2.1L138.9,154.4z"/>
			<path class="st1" d="M148.2,148.5c0.4,0,0.9-0.2,1.2-0.5c0.5-0.6,0.4-1.6-0.2-2.1l-0.8-0.7c-0.6-0.5-1.6-0.4-2.1,0.2
				c-0.5,0.6-0.4,1.6,0.2,2.1l0.8,0.7C147.5,148.4,147.9,148.5,148.2,148.5z"/>
			<path class="st1" d="M156.7,136.4c0.3-0.8,0-1.6-0.7-2l-1-0.4c-0.8-0.3-1.6,0-2,0.7c-0.3,0.8,0,1.6,0.7,2l1,0.4
				c0.2,0.1,0.4,0.1,0.6,0.1C156,137.2,156.5,136.9,156.7,136.4z"/>
			<path class="st1" d="M158.1,124.2l1,0.2c0.1,0,0.2,0,0.3,0c0.7,0,1.4-0.5,1.5-1.2c0.1-0.8-0.4-1.6-1.2-1.7l-1-0.2
				c-0.8-0.1-1.6,0.4-1.7,1.2C156.8,123.3,157.3,124.2,158.1,124.2z"/>
			<path class="st1" d="M159.1,111.2l1-0.1c0.8-0.1,1.4-0.8,1.4-1.6c-0.1-0.8-0.8-1.4-1.6-1.4l-1,0.1c-0.8,0.1-1.4,0.8-1.4,1.6
				c0.1,0.8,0.7,1.4,1.5,1.4C159,111.2,159,111.2,159.1,111.2z"/>
			<path class="st1" d="M148.9,86.2c0.3,0.4,0.8,0.6,1.2,0.6c0.3,0,0.6-0.1,0.9-0.3l0.9-0.6c0.7-0.5,0.8-1.4,0.4-2.1
				c-0.5-0.7-1.4-0.8-2.1-0.4l-0.9,0.6C148.5,84.5,148.4,85.5,148.9,86.2z"/>
			<path class="st1" d="M141.2,77.2c0.4,0,0.9-0.2,1.2-0.5l0.7-0.8c0.5-0.6,0.4-1.6-0.2-2.1s-1.6-0.4-2.1,0.2l-0.7,0.8
				c-0.5,0.6-0.4,1.6,0.2,2.1C140.5,77,140.9,77.2,141.2,77.2z"/>
			<path class="st1" d="M146.1,33.9c-0.6-0.3-1.3-0.5-2-0.5c-1.9,0-3.6,1.1-4.4,2.8c-1.1,2.4-0.1,5.3,2.3,6.4c0.6,0.3,1.3,0.5,2,0.5
				c1.9,0,3.6-1.1,4.4-2.8c0.5-1.2,0.6-2.5,0.2-3.7C148.2,35.4,147.3,34.4,146.1,33.9z M145.7,39c-0.4,0.9-1.5,1.3-2.4,0.9
				s-1.3-1.5-0.9-2.4c0.3-0.6,1-1.1,1.7-1.1c0.3,0,0.5,0.1,0.8,0.2c0.4,0.2,0.8,0.6,0.9,1C145.9,38.2,145.9,38.7,145.7,39z"/>
			<path class="st1" d="M184.3,112.3c0-1.2-0.1-2.3-0.2-3.5c0-0.1,0-0.2,0-0.4c-0.1-1.1-0.2-2.2-0.3-3.2c0-0.2,0-0.4-0.1-0.6
				c-0.1-1-0.3-2-0.4-3c0-0.3-0.1-0.5-0.1-0.8c-0.2-0.9-0.4-1.9-0.6-2.8c-0.1-0.3-0.1-0.6-0.2-1c-0.2-0.9-0.4-1.7-0.7-2.6
				c-0.1-0.3-0.1-0.6-0.2-0.9c0-0.1-0.1-0.2-0.1-0.3c-0.2-0.6-0.4-1.3-0.6-1.9c-0.2-0.6-0.4-1.2-0.6-1.7c0-0.1-0.1-0.2-0.1-0.3
				c0,0,0-0.1-0.1-0.1c-3.4-9.8-8.7-18.6-15.6-26.1l0,0c-0.1-0.1-0.1-0.1-0.2-0.2c-0.6-0.6-1.2-1.2-1.8-1.9
				c-0.3-0.3-0.6-0.6-0.9-0.9c-0.5-0.5-1-0.9-1.4-1.4c-0.5-0.4-0.9-0.8-1.4-1.2c-0.3-0.3-0.7-0.6-1-0.9c-0.6-0.5-1.2-1.1-1.9-1.6
				c-0.2-0.2-0.4-0.3-0.6-0.5c-0.8-0.6-1.6-1.2-2.4-1.8c-0.1-0.1-0.3-0.2-0.4-0.3c-0.9-0.6-1.7-1.2-2.6-1.8
				c-0.2-0.1-0.3-0.2-0.5-0.3c-0.8-0.5-1.7-1.1-2.5-1.5c3.4-0.9,6.2-3.4,7.5-6.9c0.8-2.1,0.9-4.4,0.3-6.6c-0.2-0.8-1-1.3-1.8-1.1
				c-0.8,0.2-1.3,1-1.1,1.8c0.4,1.6,0.4,3.3-0.2,4.8c-1.5,4.2-6.2,6.4-10.4,4.8c-2-0.7-3.7-2.2-4.6-4.2s-1-4.2-0.3-6.2
				c1.5-4.2,6.2-6.4,10.4-4.8c0.4,0.1,0.8,0.3,1.2,0.5c0.7,0.4,1.6,0.1,2-0.6s0.1-1.6-0.6-2c-0.5-0.3-1-0.5-1.6-0.7
				c-5.7-2.1-12.1,0.9-14.2,6.6c-1,2.8-0.9,5.8,0.4,8.5c-5.3-1.9-10.7-3.1-16.2-3.8l0,0c-0.1,0-0.1,0-0.2,0
				c-1.1-0.1-2.2-0.2-3.3-0.3c-0.1,0-0.2,0-0.3,0c-1.1-0.1-2.2-0.1-3.3-0.1c-0.1,0-0.3,0-0.4,0c-1.1,0-2.1,0-3.2,0
				c-0.2,0-0.4,0-0.5,0c-1,0-2,0.1-3,0.2c-0.2,0-0.5,0-0.7,0.1c-1,0.1-1.9,0.2-2.9,0.3c-0.3,0-0.6,0.1-0.8,0.1
				c-0.9,0.1-1.8,0.3-2.7,0.4c-0.3,0.1-0.6,0.1-1,0.2c-0.9,0.2-1.7,0.3-2.6,0.5c-0.4,0.1-0.8,0.2-1.1,0.3c-0.8,0.2-1.6,0.4-2.3,0.6
				c-0.2,0.1-0.5,0.1-0.7,0.2s-0.5,0.2-0.7,0.2c-0.7,0.2-1.3,0.4-2,0.6c-0.6,0.2-1.3,0.4-1.9,0.6c-0.3,0.1-0.5,0.2-0.8,0.3
				c-0.2,0.1-0.5,0.2-0.7,0.3c-0.8,0.3-1.5,0.6-2.3,0.9c-0.4,0.1-0.7,0.3-1.1,0.4c-0.8,0.4-1.6,0.7-2.4,1.1
				c-0.3,0.1-0.6,0.3-0.9,0.4c-0.8,0.4-1.6,0.8-2.4,1.2c-0.3,0.1-0.6,0.3-0.8,0.5c-0.8,0.4-1.6,0.9-2.3,1.3
				c-0.3,0.2-0.6,0.4-0.9,0.5c-0.7,0.4-1.4,0.9-2.1,1.4c-0.3,0.2-0.7,0.5-1,0.7c-0.6,0.4-1.3,0.9-1.9,1.3c-0.4,0.3-0.8,0.6-1.2,0.9
				c-0.5,0.4-1.1,0.8-1.6,1.2c-0.5,0.4-0.9,0.8-1.4,1.2c-0.4,0.4-0.9,0.7-1.3,1.1c-0.5,0.5-1,0.9-1.6,1.4c-0.3,0.3-0.7,0.6-1,1
				c-0.6,0.6-1.1,1.1-1.7,1.7c-0.3,0.3-0.5,0.6-0.8,0.8c-0.6,0.6-1.2,1.3-1.8,2c-0.2,0.2-0.4,0.5-0.6,0.7c-0.6,0.7-1.2,1.4-1.8,2.2
				c-0.2,0.2-0.4,0.5-0.5,0.7c-0.6,0.8-1.1,1.5-1.7,2.3c-0.2,0.2-0.3,0.5-0.5,0.7c-0.5,0.8-1,1.5-1.5,2.3c-0.2,0.3-0.4,0.6-0.6,0.9
				c-0.4,0.7-0.9,1.4-1.3,2.1c-0.1,0.2-0.2,0.4-0.4,0.6c-0.1,0.2-0.2,0.4-0.4,0.7c-0.3,0.6-0.6,1.2-1,1.8c-0.3,0.6-0.6,1.2-0.9,1.8
				c-0.1,0.2-0.2,0.5-0.3,0.7c-0.1,0.2-0.2,0.4-0.3,0.6c-0.4,0.8-0.7,1.6-1.1,2.4c-0.1,0.3-0.2,0.6-0.4,0.9c-0.4,1-0.7,1.9-1.1,2.9
				c-0.1,0.2-0.1,0.3-0.2,0.5c-0.4,1.1-0.7,2.2-1.1,3.3v0.1c-3.9,13.4-4.1,27.7-0.2,41.5c3.2,11.4,8.9,21.5,16.4,29.8
				c0.5,0.6,1,1.1,1.5,1.6c0.2,0.2,0.4,0.4,0.6,0.6c0.6,0.7,1.3,1.3,2,2l0.1,0.1c5.8,5.5,12.5,10.2,20.1,13.7
				c7.4,3.4,15,5.6,22.7,6.5c0,0,0,0,0.1,0c1,0.1,2,0.2,3,0.3h0.1c0.8,0.1,1.6,0.1,2.3,0.1c0.4,0,0.9,0,1.3,0.1c0.3,0,0.6,0,0.9,0
				c0.5,0,1,0,1.5,0c6.8,0,13.6-0.9,20.4-2.8c9.5-2.7,18-7,25.3-12.7c0.3-0.2,0.5-0.4,0.8-0.6c0.4-0.3,0.7-0.6,1.1-0.9
				c0.6-0.5,1.2-1,1.8-1.5c0.2-0.1,0.3-0.3,0.5-0.4c7.5-6.6,13.8-14.9,18.3-24.5c5-10.6,7.3-22.1,7.1-33.5
				C184.3,112.3,184.3,112.3,184.3,112.3z M156.5,168.5c-0.6,0.5-1.2,1-1.8,1.5c-0.3,0.3-0.7,0.5-1,0.8c-0.3,0.2-0.6,0.5-1,0.7
				c-12.6,9.5-28.1,14.8-43.9,14.8c-0.4,0-0.8,0-1.2,0c-0.3,0-0.6,0-0.9,0c-0.4,0-0.8,0-1.2,0c-0.8,0-1.6-0.1-2.3-0.1l0,0
				c-1-0.1-1.9-0.2-2.9-0.3l0,0c-16.4-2-31.7-9.7-43.1-21.4c-0.1-0.1-0.2-0.2-0.3-0.3c-0.6-0.6-1.1-1.2-1.7-1.8
				c-0.7-0.8-1.4-1.6-2-2.4c0,0,0,0-0.1-0.1c-14.8-18.1-20.2-42.8-13.5-66v-0.1c0.3-1.1,0.7-2.1,1-3.2c0.1-0.2,0.1-0.3,0.2-0.5
				c0.3-0.9,0.7-1.8,1-2.8c0.1-0.3,0.2-0.6,0.4-0.9c0.3-0.8,0.7-1.5,1-2.3c0.2-0.4,0.4-0.9,0.6-1.3c0.3-0.6,0.6-1.2,0.9-1.7
				c0.3-0.6,0.6-1.2,0.9-1.7c0.2-0.4,0.5-0.8,0.7-1.2c0.4-0.7,0.8-1.4,1.2-2.1c0.2-0.3,0.4-0.6,0.5-0.9c0.5-0.7,1-1.5,1.5-2.2
				c0.2-0.2,0.3-0.5,0.5-0.7c0.5-0.7,1.1-1.5,1.6-2.2c0.2-0.2,0.3-0.4,0.5-0.7c0.6-0.7,1.1-1.4,1.7-2.1c0.2-0.2,0.4-0.5,0.6-0.7
				c0.6-0.6,1.1-1.3,1.7-1.9c0.2-0.3,0.5-0.5,0.8-0.8c0.5-0.6,1.1-1.1,1.6-1.6c0.3-0.3,0.6-0.6,1-0.9c0.5-0.5,1-0.9,1.5-1.4
				c0.4-0.4,0.8-0.7,1.2-1.1c0.4-0.4,0.9-0.7,1.3-1.1c0.5-0.4,1-0.8,1.5-1.2c0.4-0.3,0.8-0.6,1.2-0.9c0.6-0.4,1.2-0.9,1.8-1.3
				c0.3-0.2,0.7-0.5,1-0.7c0.7-0.4,1.3-0.9,2-1.3c0.3-0.2,0.6-0.4,0.9-0.5c0.7-0.4,1.5-0.9,2.2-1.3c0.3-0.1,0.5-0.3,0.8-0.4
				c0.8-0.4,1.5-0.8,2.3-1.2c0.3-0.1,0.6-0.3,0.9-0.4c0.8-0.4,1.5-0.7,2.3-1c0.3-0.1,0.7-0.3,1-0.4c0.7-0.3,1.4-0.6,2.1-0.8
				c0.5-0.2,0.9-0.3,1.4-0.5c0.6-0.2,1.2-0.4,1.8-0.6s1.3-0.4,1.9-0.6c0.4-0.1,0.9-0.3,1.3-0.4c0.8-0.2,1.5-0.4,2.3-0.6
				c0.3-0.1,0.7-0.2,1-0.2c0.8-0.2,1.7-0.4,2.5-0.5c0.3-0.1,0.6-0.1,0.9-0.2c0.9-0.2,1.8-0.3,2.7-0.4c0.2,0,0.5-0.1,0.7-0.1
				c0.9-0.1,1.9-0.2,2.8-0.3c0.2,0,0.4,0,0.6,0c1-0.1,2-0.1,3-0.2c0.2,0,0.3,0,0.5,0c1,0,2.1,0,3.1,0c0.1,0,0.2,0,0.4,0
				c1.1,0,2.1,0.1,3.2,0.1c0.1,0,0.2,0,0.3,0c1.1,0.1,2.1,0.2,3.2,0.3c7.6,0.9,15.2,3,22.3,6.3c2,0.9,4,2,5.8,3.1
				c0.9,0.5,1.7,1,2.6,1.6c0.1,0.1,0.3,0.2,0.4,0.2c0.9,0.6,1.8,1.2,2.6,1.8c0.1,0.1,0.2,0.1,0.3,0.2c0.8,0.6,1.6,1.2,2.3,1.8
				c0.2,0.1,0.3,0.3,0.5,0.4c0.6,0.5,1.3,1,1.9,1.6c0.3,0.3,0.6,0.5,0.9,0.8c0.5,0.4,0.9,0.8,1.4,1.3c0.4,0.4,0.9,0.8,1.3,1.2
				c0.3,0.3,0.6,0.6,0.9,0.9c0.6,0.6,1.1,1.1,1.6,1.7c6.8,7.3,12,16.1,15.3,25.7c0.2,0.6,0.4,1.1,0.5,1.7c0.2,0.6,0.4,1.2,0.6,1.8
				c0.1,0.4,0.2,0.8,0.3,1.2c0.2,0.8,0.4,1.6,0.6,2.4c0.1,0.3,0.1,0.6,0.2,1c0.2,0.9,0.4,1.8,0.5,2.7c0,0.3,0.1,0.5,0.1,0.8
				c0.2,1,0.3,1.9,0.4,2.9c0,0.2,0,0.4,0.1,0.6c0.1,1,0.2,2.1,0.3,3.1c0,0.1,0,0.2,0,0.4c0.1,1.1,0.1,2.2,0.2,3.3v0.1
				c0.5,21.4-8.7,41.7-24.4,55.7C156.8,168.4,156.7,168.5,156.5,168.5z"/>
			<path class="st1" d="M97.3,56.8c-10.2,2.1-19.7,6.8-27.4,13.8c-0.6,0.6-0.7,1.5-0.1,2.1s1.5,0.7,2.1,0.1
				c4.9-4.4,10.6-7.9,16.7-10.3l6.9,19c0.2,0.6,0.8,1,1.4,1c0.2,0,0.3,0,0.5-0.1c0.8-0.3,1.2-1.1,0.9-1.9l-5.1-14l0,0l-0.4-1l0,0
				l-1.4-4c2.1-0.7,4.3-1.3,6.5-1.7c17.9-3.6,36.4,1.8,49.5,14.4c0.3,0.3,0.7,0.4,1,0.4c0.4,0,0.8-0.2,1.1-0.5
				c0.6-0.6,0.6-1.5,0-2.1C135.7,58.5,116.1,52.8,97.3,56.8z"/>
			<path class="st1" d="M108.8,172.5c3.9,0,7.9-0.4,11.8-1.2c13.6-2.8,25.9-10.3,34.4-21.3c0.5-0.7,0.4-1.6-0.3-2.1
				c-0.7-0.5-1.6-0.4-2.1,0.3c-6.1,7.8-14.2,13.8-23.3,17.4l-1.4-4l0,0l-0.1-0.2l-5.4-14.7c-0.3-0.8-1.1-1.2-1.9-0.9
				c-0.8,0.3-1.2,1.1-0.9,1.9l5.1,14l0,0l0.4,1l1.5,4c-2.1,0.7-4.3,1.3-6.5,1.8c-17.2,3.5-34.6-1.2-47.7-12.7
				c-0.6-0.5-1.6-0.5-2.1,0.1s-0.5,1.6,0.1,2.1C81.1,167.5,94.7,172.5,108.8,172.5z"/>
			<path class="st1" d="M159.6,140.4c0.2,0.1,0.4,0.2,0.7,0.2c0.6,0,1.1-0.3,1.3-0.8c5.7-11.6,7.3-24.5,4.7-37.2
				c-1.2-5.9-3.3-11.6-6.2-16.8c-0.4-0.7-1.3-1-2-0.6c-0.7,0.4-1,1.3-0.6,2c1.2,2.1,2.2,4.3,3.1,6.6l-4,1.4l0,0l-0.7,0.2l-14.3,5.2
				c-0.8,0.3-1.2,1.1-0.9,1.9c0.2,0.6,0.8,1,1.4,1c0.2,0,0.3,0,0.5-0.1l14-5.1l0,0l0.5-0.2l4.5-1.6c0.7,2.1,1.3,4.3,1.7,6.5
				c2.4,12.1,0.9,24.3-4.5,35.3C158.5,139,158.8,140,159.6,140.4z"/>
			<path class="st1" d="M135.5,58.7c15.9,7.6,27.8,21.8,32.6,38.9c0.2,0.7,0.8,1.1,1.4,1.1c0.1,0,0.3,0,0.4-0.1
				c0.8-0.2,1.3-1.1,1-1.8c-5-17.9-17.5-32.8-34.2-40.8c-0.7-0.4-1.6,0-2,0.7C134.4,57.4,134.7,58.3,135.5,58.7z"/>
			<path class="st1" d="M88.6,56.2c13.2-4.6,27.1-4.7,40.4-0.1c0.8,0.3,1.6-0.1,1.9-0.9c0.3-0.8-0.1-1.6-0.9-1.9
				c-13.9-4.8-28.5-4.7-42.3,0.1C69,59.9,54.6,74.5,48.2,93.2c-2.4,6.9-3.6,14.2-3.5,21.4c0,0.8,0.7,1.5,1.5,1.5l0,0
				c0.8,0,1.5-0.7,1.5-1.5c0-6.9,1.1-13.8,3.4-20.4C57,76.2,70.8,62.3,88.6,56.2z"/>
			<path class="st1" d="M173.3,115.7c0-0.8-0.6-1.5-1.5-1.5c-0.8,0-1.5,0.6-1.5,1.5c-0.2,6.3-1.3,12.5-3.3,18.5
				c-11,32-46,49.1-78.1,38c-18.3-6.3-32.3-20.5-38.3-38.9c-0.3-0.8-1.1-1.2-1.9-1c-0.8,0.3-1.2,1.1-1,1.9
				c6.4,19.3,21,34.2,40.2,40.8c6.9,2.4,14,3.5,20.9,3.5c26.7,0,51.8-16.8,60.9-43.4C172,128.8,173.2,122.2,173.3,115.7z"/>
		</g>
		<path class="st0" d="M46,190.5c-0.9-1.5-2.2-2.8-3.7-3.7c1.5-0.9,2.8-2.2,3.7-3.7c0.9,1.5,2.2,2.8,3.7,3.7
			C48.3,187.6,47,189,46,190.5z"/>
		<path class="st0" d="M32.5,35.2c0.5-0.4,1-0.9,1.4-1.4c0.4,0.5,0.9,1,1.4,1.4c-0.5,0.4-1,0.9-1.4,1.4C33.5,36,33.1,35.5,32.5,35.2
			z"/>
		<polygon class="st0" points="99.8,108.2 105.2,104 107.4,105.8 101.2,110.8 		"/>
		<polygon class="st2" points="97,103 100.6,100 102.8,102 98.4,105.5 		"/>
		<polygon class="st0" points="94.3,97.7 96,96.2 98.2,98.2 95.6,100.2 		"/>
		<polygon class="st2" points="91.6,92.5 93.6,94.2 92.8,95 		"/>
		<polygon class="st2" points="109.8,107.7 112,109.7 104,116.2 102.6,113.5 		"/>
		<polygon class="st0" points="113.9,112 126.3,135.5 105.9,118.5 		"/>
	</g>
</g>
</svg>
