<?xml version="1.0" encoding="utf-8"?>
<!-- Generator: Adobe Illustrator 21.1.0, SVG Export Plug-In . SVG Version: 6.00 Build 0)  -->
<!DOCTYPE svg PUBLIC "-//W3C//DTD SVG 1.1//EN" "http://www.w3.org/Graphics/SVG/1.1/DTD/svg11.dtd">
<svg version="1.1" id="Layer_1" xmlns="http://www.w3.org/2000/svg" xmlns:xlink="http://www.w3.org/1999/xlink" x="0px" y="0px"
	 width="30" height="30" viewBox="0 0 30 30" style="enable-background:new 0 0 30 30;" xml:space="preserve">
<style type="text/css">
	.st0{fill-rule:evenodd;clip-rule:evenodd;fill:#345AB4;}
</style>
<g>
	<g>
		<path class="st0" d="M10.9,16.4H2.7c-1.5,0-2.7,1.2-2.7,2.7v8.2C0,28.8,1.2,30,2.7,30h8.2c1.5,0,2.7-1.2,2.7-2.7v-8.2
			C13.6,17.6,12.4,16.4,10.9,16.4z M12.3,27.3c0,0.8-0.6,1.4-1.4,1.4H2.7c-0.8,0-1.4-0.6-1.4-1.4v-8.2c0-0.8,0.6-1.4,1.4-1.4h8.2
			c0.8,0,1.4,0.6,1.4,1.4V27.3z M10.9,0H2.7C1.2,0,0,1.2,0,2.7v8.2c0,1.5,1.2,2.7,2.7,2.7h8.2c1.5,0,2.7-1.2,2.7-2.7V2.7
			C13.6,1.2,12.4,0,10.9,0z M27.3,0h-8.2c-1.5,0-2.7,1.2-2.7,2.7v8.2c0,1.5,1.2,2.7,2.7,2.7h8.2c1.5,0,2.7-1.2,2.7-2.7V2.7
			C30,1.2,28.8,0,27.3,0z M28.6,10.9c0,0.8-0.6,1.4-1.4,1.4h-8.2c-0.8,0-1.4-0.6-1.4-1.4V2.7c0-0.8,0.6-1.4,1.4-1.4h8.2
			c0.8,0,1.4,0.6,1.4,1.4V10.9z M27.3,16.4h-8.2c-1.5,0-2.7,1.2-2.7,2.7v8.2c0,1.5,1.2,2.7,2.7,2.7h8.2c1.5,0,2.7-1.2,2.7-2.7v-8.2
			C30,17.6,28.8,16.4,27.3,16.4z M28.6,27.3c0,0.8-0.6,1.4-1.4,1.4h-8.2c-0.8,0-1.4-0.6-1.4-1.4v-8.2c0-0.8,0.6-1.4,1.4-1.4h8.2
			c0.8,0,1.4,0.6,1.4,1.4V27.3z"/>
	</g>
</g>
</svg>
