<?xml version="1.0" encoding="utf-8"?>
<!-- Generator: Adobe Illustrator 21.1.0, SVG Export Plug-In . SVG Version: 6.00 Build 0)  -->
<!DOCTYPE svg PUBLIC "-//W3C//DTD SVG 1.1//EN" "http://www.w3.org/Graphics/SVG/1.1/DTD/svg11.dtd">
<svg version="1.1" id="Layer_1" xmlns="http://www.w3.org/2000/svg" xmlns:xlink="http://www.w3.org/1999/xlink" x="0px" y="0px"
	 width="24" height="30" viewBox="0 0 24 30" style="enable-background:new 0 0 24 30;" xml:space="preserve">
<style type="text/css">
	.st0{fill:#424242;}
	.st1{fill:#2EA5D7;}
</style>
<g>
	<g>
		<path class="st0" d="M23.4,24.5c0,0.9-0.2,1.7-0.5,2.3c-0.4,0.7-0.8,1.3-1.4,1.7c-0.6,0.5-1.3,0.8-2.2,1.1
			c-0.8,0.2-1.7,0.4-2.8,0.4c-0.6,0-1.1-0.1-1.7-0.1c-0.5-0.1-1-0.2-1.4-0.3c-0.4-0.1-0.7-0.2-1-0.4c-0.2-0.1-0.4-0.2-0.5-0.3
			c-0.1-0.1-0.1-0.2-0.2-0.2c-0.1-0.1-0.1-0.2-0.1-0.3c-0.1-0.1-0.1-0.3-0.1-0.5c0-0.2,0-0.4,0-0.7c0-0.4,0.1-0.7,0.1-0.9
			c0.1-0.2,0.2-0.2,0.3-0.2c0.1,0,0.2,0.1,0.5,0.2c0.2,0.1,0.5,0.2,0.8,0.4c0.4,0.1,0.8,0.3,1.2,0.4c0.5,0.1,1,0.2,1.6,0.2
			c0.5,0,1-0.1,1.3-0.2s0.7-0.3,1-0.5c0.2-0.2,0.5-0.5,0.6-0.8c0.1-0.3,0.2-0.7,0.2-1c0-0.4-0.1-0.8-0.2-1.1
			c-0.2-0.3-0.4-0.6-0.7-0.8c-0.3-0.2-0.7-0.4-1.2-0.5s-1-0.2-1.7-0.2h-1.6c-0.1,0-0.2,0-0.3-0.1c-0.1-0.1-0.2-0.1-0.2-0.2
			c-0.1-0.1-0.1-0.2-0.1-0.4s-0.1-0.4-0.1-0.7c0-0.2,0-0.5,0.1-0.7c0-0.2,0.1-0.3,0.1-0.4c0.1-0.1,0.1-0.2,0.2-0.2
			c0.1,0,0.2-0.1,0.3-0.1h1.6c0.5,0,1-0.1,1.4-0.2c0.4-0.1,0.8-0.3,1-0.5c0.3-0.2,0.5-0.5,0.7-0.8c0.1-0.3,0.2-0.7,0.2-1.1
			c0-0.3-0.1-0.6-0.2-0.8c-0.1-0.2-0.2-0.5-0.4-0.7c-0.2-0.2-0.4-0.4-0.8-0.5c-0.3-0.1-0.7-0.2-1.1-0.2c-0.5,0-0.9,0.1-1.3,0.2
			c-0.4,0.1-0.8,0.3-1.1,0.5c-0.4,0.2-0.6,0.3-0.8,0.5c-0.2,0.1-0.4,0.2-0.5,0.2c-0.1,0-0.1,0-0.2-0.1C12.1,16,12,15.9,12,15.8
			c0-0.2,0-0.4-0.1-0.5c0-0.2,0-0.4,0-0.7s0-0.4,0-0.5c0-0.2,0-0.3,0.1-0.4c0-0.1,0.1-0.2,0.1-0.2c0.1-0.1,0.1-0.2,0.2-0.2
			c0.1-0.1,0.3-0.2,0.5-0.4c0.3-0.2,0.7-0.4,1.1-0.5c0.4-0.2,0.9-0.3,1.5-0.4c0.5-0.1,1.1-0.2,1.8-0.2c0.8,0,1.6,0.1,2.3,0.3
			c0.7,0.2,1.2,0.5,1.7,0.8c0.5,0.4,0.8,0.8,1,1.4c0.2,0.5,0.4,1.2,0.4,1.9c0,0.5-0.1,1-0.2,1.5s-0.4,0.9-0.6,1.3
			c-0.2,0.4-0.6,0.7-1,0.9c-0.4,0.2-0.8,0.4-1.4,0.6v-0.1c0.6,0.1,1.2,0.2,1.7,0.5c0.5,0.2,0.9,0.5,1.3,0.9c0.4,0.4,0.6,0.8,0.8,1.3
			C23.3,23.5,23.4,24,23.4,24.5z"/>
	</g>
	<g>
		<path class="st1" d="M17.4,8.7c0,0.4,0,0.6-0.1,0.8c-0.1,0.2-0.1,0.4-0.2,0.5s-0.2,0.2-0.2,0.3c-0.1,0.1-0.2,0.1-0.3,0.1h-5.7v6.1
			c0,0.1-0.1,0.2-0.1,0.3c-0.1,0.1-0.2,0.2-0.3,0.2c-0.1,0.1-0.4,0.1-0.6,0.2S9.3,17.3,9,17.3s-0.7,0-0.9-0.1
			c-0.2-0.1-0.4-0.1-0.6-0.2C7.3,17,7.2,17,7.2,16.9C7.1,16.7,7,16.7,7,16.6v-6.1H1.4c-0.1,0-0.2,0-0.3-0.1
			c-0.1-0.1-0.2-0.2-0.2-0.3C0.8,10,0.7,9.8,0.7,9.5S0.6,9,0.6,8.7s0-0.6,0.1-0.8c0.1-0.2,0.1-0.4,0.2-0.5C0.9,7.2,1,7.1,1.1,7
			C1.2,7,1.3,6.9,1.4,6.9h5.7V0.8c0-0.1,0.1-0.2,0.1-0.4c0.1-0.1,0.2-0.2,0.3-0.2S7.9,0.1,8.1,0C8.3,0,8.6,0,9,0
			c0.4,0,0.7,0,0.9,0.1s0.4,0.1,0.6,0.2c0.1,0.1,0.2,0.2,0.3,0.2c0.1,0.1,0.1,0.2,0.1,0.4V7h5.8c0.1,0,0.2,0,0.3,0.1
			c0.1,0.1,0.2,0.2,0.2,0.3c0.1,0.1,0.1,0.3,0.2,0.5C17.3,8,17.4,8.3,17.4,8.7z"/>
	</g>
</g>
</svg>
