<?xml version="1.0" encoding="utf-8"?>
<!-- Generator: Adobe Illustrator 21.1.0, SVG Export Plug-In . SVG Version: 6.00 Build 0)  -->
<!DOCTYPE svg PUBLIC "-//W3C//DTD SVG 1.1//EN" "http://www.w3.org/Graphics/SVG/1.1/DTD/svg11.dtd">
<svg version="1.1" id="Layer_2" xmlns="http://www.w3.org/2000/svg" xmlns:xlink="http://www.w3.org/1999/xlink" x="0px" y="0px"
	 viewBox="0 0 30 30" style="enable-background:new 0 0 30 30;" xml:space="preserve">
<style type="text/css">
	.st0{fill-rule:evenodd;clip-rule:evenodd;fill:#345AB4;}
</style>
<g>
	<g>
		<path class="st0" d="M25.5,1h-21C2.6,1,1,2.6,1,4.5v21C1,27.4,2.6,29,4.5,29h3.2h1.1h16.7c1.9,0,3.5-1.6,3.5-3.5v-21
			C29,2.6,27.4,1,25.5,1z M27.9,7v9.9h-19V7H27.9z M7.7,27.9H4.4c-1.2,0-2.2-1-2.2-2.2V7h5.6V27.9z M25.6,27.9H8.8v-9.8h19v7.6
			C27.9,26.9,26.9,27.9,25.6,27.9z"/>
	</g>
</g>
</svg>
